<svg xmlns="http://www.w3.org/2000/svg" viewBox="0 0 500 500"><g id="freepik--background-complete--inject-253"><path d="M444.71,349.14H264a5.87,5.87,0,0,1-5.86-5.86V80A5.87,5.87,0,0,1,264,74.15H444.71A5.87,5.87,0,0,1,450.57,80V343.28A5.87,5.87,0,0,1,444.71,349.14ZM264,74.4A5.61,5.61,0,0,0,258.35,80V343.28a5.61,5.61,0,0,0,5.61,5.61H444.71a5.61,5.61,0,0,0,5.61-5.61V80a5.61,5.61,0,0,0-5.61-5.61Z" style="fill:#f0f0f0"></path><path d="M236.28,349.14H55.53a5.87,5.87,0,0,1-5.86-5.86V80a5.87,5.87,0,0,1,5.86-5.86H236.28A5.87,5.87,0,0,1,242.14,80V343.28A5.87,5.87,0,0,1,236.28,349.14ZM55.53,74.4A5.61,5.61,0,0,0,49.92,80V343.28a5.61,5.61,0,0,0,5.61,5.61H236.28a5.61,5.61,0,0,0,5.61-5.61V80a5.61,5.61,0,0,0-5.61-5.61Z" style="fill:#f0f0f0"></path><rect y="410.21" width="500" height="0.25" style="fill:#f0f0f0"></rect><polygon points="348.64 166.25 344.17 201.84 313.05 170.72 348.64 166.25" style="fill:#f5f5f5"></polygon><polygon points="277.05 246.68 339.99 183.74 330.8 174.54 277.05 228.3 277.05 246.68" style="fill:#f5f5f5"></polygon><path d="M110.48,298.06a25.32,25.32,0,0,1-16,36.17,25.26,25.26,0,0,1-12.66.07c-.58-.15-1.17-.32-1.74-.51A25.41,25.41,0,0,1,73,330.12c-.42-.31-.84-.64-1.24-1a25.21,25.21,0,0,1-6.18-7.7c-.14-.28-.28-.56-.41-.85a25.33,25.33,0,0,1,20.47-36c.61-.06,1.22-.09,1.83-.11a25.67,25.67,0,0,1,7.81,1.06c.56.17,1.11.35,1.65.55a25.64,25.64,0,0,1,5.49,2.87,25.15,25.15,0,0,1,7.63,8.33C110.19,297.51,110.34,297.78,110.48,298.06Z" style="fill:#f5f5f5"></path><path d="M106.39,301.24c-.26-.44-.53-.87-.82-1.29a20.16,20.16,0,0,0-4.66-4.82,19.9,19.9,0,0,0-6-3,16.48,16.48,0,0,0-1.67-.45,20.17,20.17,0,0,0-8-.16,19.84,19.84,0,0,0-2,.46,20.26,20.26,0,0,0-12.76,28l-.45-.82A20.23,20.23,0,1,1,106,300.41C106.12,300.68,106.25,301,106.39,301.24Z" style="fill:#e0e0e0"></path><g style="opacity:0.30000000000000004"><path d="M97.36,327.7c-.21.11-.42.22-.64.32h0c-.22.11-.43.21-.66.3l-.16.07c-.25.11-.49.2-.73.29l-.1,0a19.56,19.56,0,0,1-2.41.73c-.27.06-.55.13-.82.17-.55.11-1.1.19-1.66.25h0l-.54.05-.29,0-.43,0c-.22,0-.44,0-.67,0s-.57,0-.86,0-.57,0-.85-.05-.47,0-.7-.06l-.46-.06-.37-.05-.42-.07-.69-.13-.59-.14-.13,0-.84-.22-.78-.25h0l-.46-.17-.46-.17-.44-.18-.47-.21-.45-.21-.44-.22c-.3-.15-.6-.31-.9-.49l-.36-.21c-.3-.18-.58-.36-.87-.56l-.4-.28c-.43-.3-.85-.63-1.25-1l-.32-.28c-.24-.21-.47-.41-.69-.63l0,0c-.23-.22-.45-.45-.67-.68l-.3-.32-.14-.16-.31-.35,0-.06a4.23,4.23,0,0,1-.33-.41,5.19,5.19,0,0,1-.36-.46c-.12-.15-.23-.31-.34-.47s-.18-.25-.26-.38l-.17-.25-.22-.35-.3-.5a20.26,20.26,0,0,1,12.76-28,19.84,19.84,0,0,1,2-.46,20.17,20.17,0,0,1,8,.16,16.48,16.48,0,0,1,1.67.45,19.9,19.9,0,0,1,6,3,20.16,20.16,0,0,1,4.66,4.82c.29.42.56.85.82,1.29A20.27,20.27,0,0,1,97.36,327.7Z"></path></g><path d="M97.36,327.7c-.21.11-.42.22-.64.32h0c-.22.11-.43.21-.66.3l-.16.07c-.25.11-.49.2-.73.29l-.1,0a19.56,19.56,0,0,1-2.41.73c-.27.06-.55.13-.82.17-.55.11-1.1.19-1.66.25l-.22,0-.33,0-.29,0-.43,0c-.22,0-.44,0-.67,0s-.57,0-.86,0-.57,0-.85-.05-.47,0-.7-.06l-.46-.06-.37-.05-.42-.07-.69-.13-.59-.14-.13,0-.84-.22-.78-.25h0l-.46-.17-.46-.17-.44-.18-.47-.21-.45-.21-.44-.22c-.3-.15-.6-.31-.9-.49l-.36-.21c-.3-.18-.58-.36-.87-.56l-.4-.28c-.43-.3-.85-.63-1.25-1l-.32-.28c-.24-.21-.47-.41-.69-.63l0,0c-.23-.22-.45-.45-.67-.68l-.3-.32-.14-.16-.31-.35,0-.06a4.23,4.23,0,0,1-.33-.41,5.19,5.19,0,0,1-.36-.46c-.12-.15-.23-.31-.34-.47s-.18-.25-.26-.38l-.17-.25-.22-.35-.3-.5a20.26,20.26,0,0,1,12.76-28,19.84,19.84,0,0,1,2-.46,20.17,20.17,0,0,1,8,.16,16.48,16.48,0,0,1,1.67.45,19.9,19.9,0,0,1,6,3,20.16,20.16,0,0,1,4.66,4.82c.29.42.56.85.82,1.29A20.27,20.27,0,0,1,97.36,327.7Z" style="fill:#f0f0f0"></path><path d="M95.82,318.64l1.55,3-3.79,2-1.48-2.85a17.69,17.69,0,0,1-7.88,1.71l-.37-5.68A14.49,14.49,0,0,0,91,315.26c1.8-.94,2.24-1.65,1.91-2.29-1.23-2.37-10.64,4.95-14.29-2.06-1.58-3-.7-6.74,3.38-9.65l-1.52-2.93,3.79-2,1.49,2.88A15.67,15.67,0,0,1,92,298l.48,5.58a13.18,13.18,0,0,0-6,1.33c-1.86,1-2.17,1.81-1.83,2.46,1.17,2.26,10.59-5,14.2,1.89C100.39,312.13,99.61,315.74,95.82,318.64Z" style="fill:#e0e0e0"></path><path d="M95.19,317.7l1.55,3-3.78,2-1.49-2.84a18,18,0,0,1-7.88,1.71l-.36-5.68a14.67,14.67,0,0,0,7.1-1.51c1.8-.94,2.25-1.65,1.91-2.3C91,309.67,81.61,317,78,310c-1.58-3-.71-6.73,3.38-9.64l-1.53-2.93,3.79-2,1.5,2.87A15.94,15.94,0,0,1,91.36,297l.49,5.59a13.06,13.06,0,0,0-6,1.33c-1.85,1-2.17,1.81-1.83,2.45,1.17,2.26,10.59-5,14.2,1.9C99.76,311.19,99,314.81,95.19,317.7Z" style="fill:#f5f5f5"></path><path d="M417.52,217.41a25.3,25.3,0,0,1-45.67,6.91c-.33-.51-.64-1-.93-1.57a25.56,25.56,0,0,1-2.69-7.53c-.09-.52-.17-1-.24-1.57a25.24,25.24,0,0,1,.76-9.84q.12-.45.27-.9a25.32,25.32,0,0,1,39.58-12.35c.48.37.95.76,1.4,1.17a25.22,25.22,0,0,1,5,6.11c.29.5.57,1,.83,1.53a25.23,25.23,0,0,1,2.05,5.83,24.88,24.88,0,0,1,.56,6.46,25.19,25.19,0,0,1-.68,4.84C417.68,216.81,417.6,217.11,417.52,217.41Z" style="fill:#f5f5f5"></path><path d="M412.36,216.94c.11-.5.21-1,.28-1.5a19.8,19.8,0,0,0-.11-6.7,20.09,20.09,0,0,0-2.3-6.31c-.28-.5-.59-1-.91-1.47a20.39,20.39,0,0,0-5.74-5.59c-.57-.35-1.15-.69-1.75-1a20.51,20.51,0,0,0-3.76-1.46,20.25,20.25,0,0,0-24.66,13.17c.08-.3.15-.6.23-.9a20.24,20.24,0,0,1,39,10.87Z" style="fill:#e0e0e0"></path><g style="opacity:0.30000000000000004"><path d="M387.7,230.1l-.69-.2h0l-.69-.23-.17-.06-.72-.28-.11,0a19.64,19.64,0,0,1-2.25-1.12c-.24-.14-.49-.28-.72-.43-.48-.3-.93-.62-1.38-.95h0l-.42-.33-.23-.19L380,226c-.17-.15-.34-.29-.5-.45l-.62-.59c-.2-.2-.4-.41-.59-.62s-.32-.34-.47-.53-.2-.23-.29-.35l-.24-.29-.26-.34c-.14-.18-.28-.37-.41-.56s-.23-.33-.34-.51l-.08-.11-.46-.74-.39-.71,0,0c-.08-.15-.15-.3-.22-.44s-.15-.3-.22-.45-.13-.28-.2-.43-.14-.31-.2-.47l-.18-.46c-.06-.15-.12-.3-.17-.46-.12-.32-.23-.64-.33-1l-.12-.41c-.09-.32-.17-.66-.25-1,0-.16-.07-.32-.1-.48-.11-.52-.19-1-.26-1.56,0-.14,0-.28,0-.42,0-.31-.06-.62-.07-.94,0,0,0,0,0,0,0-.32,0-.63,0-.94v-.44c0-.08,0-.15,0-.22s0-.31,0-.47a.2.2,0,0,1,0-.07c0-.17,0-.35,0-.52l.06-.58c0-.2,0-.39.07-.58s0-.3.07-.46,0-.19,0-.29.05-.27.08-.41l.12-.57a20.25,20.25,0,0,1,24.66-13.17,20.51,20.51,0,0,1,3.76,1.46c.6.31,1.18.65,1.75,1a20.39,20.39,0,0,1,5.74,5.59c.32.47.63,1,.91,1.47a20.09,20.09,0,0,1,2.3,6.31,19.8,19.8,0,0,1,.11,6.7c-.07.5-.17,1-.28,1.5A20.26,20.26,0,0,1,387.7,230.1Z"></path></g><path d="M387.7,230.1l-.69-.2h0l-.69-.23-.17-.06-.72-.28-.11,0a19.64,19.64,0,0,1-2.25-1.12c-.24-.14-.49-.28-.72-.43-.48-.3-.93-.62-1.38-.95l-.18-.14a2.43,2.43,0,0,1-.25-.2l-.23-.19L380,226c-.17-.15-.34-.29-.5-.45l-.62-.59c-.2-.2-.4-.41-.59-.62s-.32-.34-.47-.53-.2-.23-.29-.35l-.24-.29-.26-.34c-.14-.18-.28-.37-.41-.56s-.23-.33-.34-.51l-.08-.11-.46-.74-.39-.71,0,0c-.08-.15-.15-.3-.22-.44s-.15-.3-.22-.45-.13-.28-.2-.43-.14-.31-.2-.47l-.18-.46c-.06-.15-.12-.3-.17-.46-.12-.32-.23-.64-.33-1l-.12-.41c-.09-.32-.17-.66-.25-1,0-.16-.07-.32-.1-.48-.11-.52-.19-1-.26-1.56,0-.14,0-.28,0-.42,0-.31-.06-.62-.07-.94,0,0,0,0,0,0,0-.32,0-.63,0-.94v-.44c0-.08,0-.15,0-.22s0-.31,0-.47a.2.2,0,0,1,0-.07c0-.17,0-.35,0-.52l.06-.58c0-.2,0-.39.07-.58s0-.3.07-.46,0-.19,0-.29.05-.27.08-.41l.12-.57a20.25,20.25,0,0,1,24.66-13.17,20.51,20.51,0,0,1,3.76,1.46c.6.31,1.18.65,1.75,1a20.39,20.39,0,0,1,5.74,5.59c.32.47.63,1,.91,1.47a20.09,20.09,0,0,1,2.3,6.31,19.8,19.8,0,0,1,.11,6.7c-.07.5-.17,1-.28,1.5A20.26,20.26,0,0,1,387.7,230.1Z" style="fill:#f0f0f0"></path><path d="M392.76,222.43l-.9,3.23-4.12-1.14.87-3.09a17.82,17.82,0,0,1-6.93-4.14l3.61-4.4a14.59,14.59,0,0,0,6.22,3.75c2,.54,2.77.33,3-.37.71-2.57-11.16-3.64-9-11.26.92-3.3,4.08-5.4,9.05-4.74l.89-3.18,4.11,1.15-.87,3.12a15.75,15.75,0,0,1,5.45,3.35l-3.46,4.41a13,13,0,0,0-5.26-3.11c-2-.56-2.82-.15-3,.55-.68,2.45,11.18,3.55,9.08,11.08C400.54,220.79,397.5,222.9,392.76,222.43Z" style="fill:#e0e0e0"></path><path d="M392.94,221.32l-.9,3.23-4.12-1.14.87-3.1a17.69,17.69,0,0,1-6.93-4.13l3.62-4.4a14.5,14.5,0,0,0,6.21,3.75c2,.54,2.77.33,3-.37.71-2.57-11.15-3.64-9-11.26.92-3.3,4.08-5.4,9.06-4.74l.88-3.18,4.12,1.15-.88,3.12a15.89,15.89,0,0,1,5.46,3.35L400.8,208a13,13,0,0,0-5.26-3.11c-2-.56-2.82-.15-3,.55-.68,2.45,11.18,3.55,9.08,11.08C400.72,219.68,397.68,221.79,392.94,221.32Z" style="fill:#f5f5f5"></path><polygon points="152.05 129.29 147.57 164.88 116.46 133.77 152.05 129.29" style="fill:#f5f5f5"></polygon><polygon points="49.94 240.24 143.4 146.78 134.21 137.59 49.94 221.86 49.94 240.24" style="fill:#f5f5f5"></polygon><path d="M88,99.72h0a1.34,1.34,0,0,1-1.35,1.34H81.33v5.34a1.35,1.35,0,0,1-2.69,0v-5.34H73.3A1.34,1.34,0,0,1,72,99.73h0a1.34,1.34,0,0,1,1.34-1.34h5.34V93a1.35,1.35,0,0,1,2.69,0v5.34h5.34A1.34,1.34,0,0,1,88,99.72Z" style="fill:#f5f5f5"></path><path d="M425.53,112.15h0a1.34,1.34,0,0,1-1.35,1.34h-5.34v5.34a1.35,1.35,0,1,1-2.69,0V113.5h-5.34a1.34,1.34,0,0,1-1.34-1.34h0a1.35,1.35,0,0,1,1.34-1.34h5.34v-5.34a1.35,1.35,0,0,1,2.69,0v5.34h5.34A1.35,1.35,0,0,1,425.53,112.15Z" style="fill:#f5f5f5"></path><path d="M325,288h0a1.35,1.35,0,0,1-1.35,1.34H318.3v5.34a1.35,1.35,0,1,1-2.69,0v-5.34h-5.34a1.35,1.35,0,0,1-1.35-1.34h0a1.36,1.36,0,0,1,1.35-1.34h5.34v-5.34a1.35,1.35,0,0,1,2.69,0v5.34h5.34A1.36,1.36,0,0,1,325,288Z" style="fill:#f5f5f5"></path><path d="M427.12,158c-1.9-4.44-6.7-12.74-16.62-15-9.07-2.07-15.93,9.4-21.55,10.24s-5-1.69-16.26-5.91c-9.62-3.62-16.07,5.78-18.36,10.67Z" style="fill:#f5f5f5"></path><path d="M224.26,106.69s0-10.1-9.92-10.53c-4.75-.2-10.54,3.68-14.2-2.46-4.25-7.13-11.68-11.38-18.37-8.62-7.39,3-11.58,14.74-18.8,13.78s-21-5.76-28.11,7.83Z" style="fill:#f5f5f5"></path></g><g id="freepik--Shadow--inject-253"><ellipse cx="247.49" cy="433.59" rx="212" ry="6.07" style="fill:#f0f0f0"></ellipse></g><g id="freepik--Coins--inject-253"><path d="M369.68,387.13a36.64,36.64,0,0,1-40.76,47.8,37.37,37.37,0,0,1-8.28-2.43c-.81-.35-1.61-.72-2.39-1.12a36.48,36.48,0,0,1-9.33-6.84c-.54-.54-1.06-1.1-1.56-1.67a36.68,36.68,0,0,1-7.1-12.39c-.14-.43-.28-.86-.4-1.3a36.65,36.65,0,0,1,37.32-46.94c.89.06,1.76.14,2.64.26a36.62,36.62,0,0,1,10.93,3.26c.75.36,1.5.75,2.23,1.16a36.5,36.5,0,0,1,16.24,18.93C369.38,386.27,369.53,386.7,369.68,387.13Z" style="fill:#BA68C8"></path><path d="M369.68,387.13a36.64,36.64,0,0,1-40.76,47.8,37.37,37.37,0,0,1-8.28-2.43c-.81-.35-1.61-.72-2.39-1.12a36.48,36.48,0,0,1-9.33-6.84c-.54-.54-1.06-1.1-1.56-1.67a36.68,36.68,0,0,1-7.1-12.39c-.14-.43-.28-.86-.4-1.3a36.65,36.65,0,0,1,37.32-46.94c.89.06,1.76.14,2.64.26a36.62,36.62,0,0,1,10.93,3.26c.75.36,1.5.75,2.23,1.16a36.5,36.5,0,0,1,16.24,18.93C369.38,386.27,369.53,386.7,369.68,387.13Z" style="fill:#BA68C8"></path><path d="M363.12,390.75c-.27-.69-.56-1.36-.88-2a29.27,29.27,0,0,0-13.46-13.61c-.75-.37-1.51-.71-2.29-1a29.15,29.15,0,0,0-11.4-2,28.47,28.47,0,0,0-2.91.21,28.8,28.8,0,0,0-5.68,1.31,29.31,29.31,0,0,0-18.82,35.79l-.45-1.26a29.27,29.27,0,1,1,55.48-18.67C362.86,389.9,363,390.33,363.12,390.75Z" style="opacity:0.6000000000000001"></path><g style="opacity:0.30000000000000004"><path d="M344.3,426.54c-.33.12-.66.22-1,.32h0l-1,.28-.25.07-1.1.25-.16,0a27.81,27.81,0,0,1-3.6.5c-.41,0-.81.06-1.22.06-.81,0-1.61,0-2.42,0h0l-.78-.05-.42,0-.62-.07q-.48,0-1-.12c-.41-.06-.81-.12-1.22-.21s-.81-.16-1.21-.25-.66-.16-1-.26l-.64-.18-.51-.15-.59-.2-.95-.34c-.28-.1-.55-.21-.82-.33l-.18-.07c-.38-.17-.77-.33-1.15-.51s-.7-.34-1.05-.53l-.06,0-.63-.34-.61-.36-.59-.35-.63-.4-.59-.4-.58-.41c-.4-.29-.79-.59-1.18-.91l-.47-.38q-.57-.48-1.11-1l-.52-.49c-.54-.53-1.06-1.09-1.56-1.66l-.4-.47c-.29-.35-.57-.69-.85-1.06l0-.05c-.27-.36-.54-.73-.79-1.11l-.36-.52-.17-.27c-.12-.19-.24-.38-.35-.57l-.06-.09c-.13-.21-.26-.44-.38-.66s-.28-.49-.4-.74-.27-.49-.39-.74-.19-.4-.29-.61-.12-.26-.17-.39a5.38,5.38,0,0,1-.24-.55l-.33-.79a29.31,29.31,0,0,1,18.82-35.79,28.8,28.8,0,0,1,5.68-1.31,28.47,28.47,0,0,1,2.91-.21,29.15,29.15,0,0,1,11.4,2c.78.3,1.54.64,2.29,1a29.27,29.27,0,0,1,13.46,13.61c.32.66.61,1.33.88,2A29.3,29.3,0,0,1,344.3,426.54Z"></path></g><g style="opacity:0.6000000000000001"><path d="M344.12,413.24l1.55,4.61-5.85,2-1.48-4.4a25.88,25.88,0,0,1-11.65.69l.75-8.21a21,21,0,0,0,10.49-.57c2.78-.93,3.58-1.85,3.25-2.85-1.23-3.65-16.31,4.7-19.95-6.13-1.58-4.69.49-9.78,7-13l-1.52-4.53,5.85-2,1.5,4.45a22.81,22.81,0,0,1,9.24-.43l-.56,8.09a18.78,18.78,0,0,0-8.82.57c-2.87,1-3.5,2.1-3.17,3.09,1.18,3.49,16.27-4.82,19.87,5.89C352.11,405,350.18,410,344.12,413.24Z"></path></g><path d="M343.44,411.77l1.55,4.61-5.86,2-1.48-4.4a25.86,25.86,0,0,1-11.65.68l.76-8.2a21.17,21.17,0,0,0,10.48-.57c2.79-.94,3.59-1.86,3.25-2.85-1.23-3.66-16.31,4.7-19.95-6.14-1.58-4.69.5-9.78,7-13L326,379.32l5.86-2,1.49,4.44a23,23,0,0,1,9.24-.43l-.56,8.1a18.93,18.93,0,0,0-8.82.56c-2.87,1-3.5,2.1-3.16,3.1,1.17,3.49,16.26-4.83,19.86,5.89C351.42,403.49,349.5,408.48,343.44,411.77Z" style="fill:#BA68C8"></path><path d="M170.54,235.83A36.65,36.65,0,0,1,119,260.55a36,36,0,0,1-8.2-5.41,37,37,0,0,1-5.78-6.41c-.51-.72-1-1.46-1.44-2.21a36.7,36.7,0,0,1-4.36-10.71c-.17-.75-.32-1.49-.45-2.25a36.46,36.46,0,0,1,.46-14.27c.1-.44.21-.88.34-1.31a36.63,36.63,0,0,1,56.4-20.38c.72.51,1.42,1,2.1,1.6a36.41,36.41,0,0,1,7.6,8.51c.45.7.89,1.42,1.29,2.15a36.67,36.67,0,0,1,4.57,17.6,37.53,37.53,0,0,1-.67,7C170.73,234.94,170.64,235.39,170.54,235.83Z" style="fill:#BA68C8"></path><path d="M170.54,235.83A36.65,36.65,0,0,1,119,260.55a36,36,0,0,1-8.2-5.41,37,37,0,0,1-5.78-6.41c-.51-.72-1-1.46-1.44-2.21a36.7,36.7,0,0,1-4.36-10.71c-.17-.75-.32-1.49-.45-2.25a36.46,36.46,0,0,1,.46-14.27c.1-.44.21-.88.34-1.31a36.63,36.63,0,0,1,56.4-20.38c.72.51,1.42,1,2.1,1.6a36.41,36.41,0,0,1,7.6,8.51c.45.7.89,1.42,1.29,2.15a36.67,36.67,0,0,1,4.57,17.6,37.53,37.53,0,0,1-.67,7C170.73,234.94,170.64,235.39,170.54,235.83Z" style="fill:#BA68C8"></path><path d="M163.05,235.47c.13-.72.24-1.45.31-2.18A29.26,29.26,0,0,0,159,214.65q-.66-1.07-1.41-2.07a29.2,29.2,0,0,0-8.65-7.7,28.85,28.85,0,0,0-2.59-1.34,29.26,29.26,0,0,0-40.32,18.73c.09-.44.18-.88.28-1.32a29.27,29.27,0,0,1,57,13.22C163.28,234.61,163.16,235.05,163.05,235.47Z" style="opacity:0.6000000000000001"></path><g style="opacity:0.30000000000000004"><path d="M128.25,256.07c-.34-.07-.67-.16-1-.25h0l-1-.29-.25-.08-1.07-.36-.15-.06a29.18,29.18,0,0,1-3.33-1.46c-.36-.19-.72-.38-1.07-.59-.71-.4-1.39-.82-2-1.28h0l-.63-.45-.35-.26-.49-.38c-.25-.19-.5-.39-.75-.61s-.63-.53-.93-.82-.61-.56-.9-.85-.47-.48-.7-.73-.31-.32-.45-.49-.24-.27-.36-.4l-.4-.48-.63-.79c-.18-.23-.36-.46-.52-.7l-.12-.16c-.24-.34-.48-.69-.71-1s-.42-.66-.62-1l0-.05c-.12-.2-.24-.41-.35-.62s-.23-.42-.34-.63l-.32-.61c-.1-.22-.22-.44-.32-.66l-.29-.66c-.1-.21-.19-.43-.28-.65-.19-.45-.36-.91-.53-1.39l-.2-.57c-.16-.47-.3-.95-.42-1.42-.07-.24-.13-.47-.19-.7-.18-.74-.33-1.48-.46-2.23l-.09-.6c-.07-.45-.12-.9-.17-1.35v-.07c0-.45-.08-.91-.1-1.36l0-.63V228c0-.22,0-.45,0-.67v-.1c0-.26,0-.51,0-.77s0-.56,0-.84,0-.56.06-.83,0-.45.08-.67,0-.29,0-.43.05-.39.08-.59.09-.56.14-.84a29.26,29.26,0,0,1,40.32-18.73,28.85,28.85,0,0,1,2.59,1.34,29.2,29.2,0,0,1,8.65,7.7q.75,1,1.41,2.07a29.26,29.26,0,0,1,4.32,18.64c-.07.73-.18,1.46-.31,2.18A29.31,29.31,0,0,1,128.25,256.07Z"></path></g><g style="opacity:0.6000000000000001"><path d="M135.08,244.66l-1.1,4.73L128,248l1-4.52A25.8,25.8,0,0,1,118.74,238l4.94-6.59a21,21,0,0,0,9.23,5c2.86.67,4,.31,4.26-.72.87-3.75-16.35-4.55-13.77-15.69,1.12-4.82,5.56-8.06,12.78-7.42l1.08-4.66,6,1.4-1.06,4.57a22.88,22.88,0,0,1,8.09,4.48l-4.72,6.59a19,19,0,0,0-7.81-4.14c-2.94-.69-4.08-.05-4.32,1-.83,3.59,16.38,4.43,13.83,15.44C146.22,241.8,142,245,135.08,244.66Z"></path></g><path d="M135.27,243l-1.1,4.74-6-1.4,1-4.52a25.8,25.8,0,0,1-10.27-5.53l4.94-6.59a21,21,0,0,0,9.23,5c2.86.66,4,.3,4.26-.72.87-3.76-16.35-4.56-13.77-15.7,1.12-4.82,5.56-8.06,12.78-7.42l1.08-4.65,6,1.39-1.06,4.57a22.88,22.88,0,0,1,8.09,4.48l-4.72,6.6a18.88,18.88,0,0,0-7.81-4.15c-2.94-.68-4.08,0-4.32,1-.83,3.58,16.38,4.42,13.83,15.43C146.41,240.18,142.15,243.42,135.27,243Z" style="fill:#BA68C8"></path></g><g id="freepik--Arrows--inject-253"><polygon points="420.1 351.68 430.88 362.46 360.41 432.93 378.81 432.93 440.08 371.66 451.22 382.79 455.7 347.2 420.1 351.68" style="fill:#BA68C8"></polygon><g style="opacity:0.30000000000000004"><polygon points="420.1 351.68 430.88 362.46 360.41 432.93 378.81 432.93 440.08 371.66 451.22 382.79 455.7 347.2 420.1 351.68" style="fill:#fff"></polygon></g><polygon points="149.63 320.06 160.41 330.85 58.32 432.93 76.71 432.93 169.61 340.05 180.75 351.18 185.23 315.58 149.63 320.06" style="fill:#BA68C8"></polygon><g style="opacity:0.30000000000000004"><polygon points="149.63 320.06 160.41 330.85 58.32 432.93 76.71 432.93 169.61 340.05 180.75 351.18 185.23 315.58 149.63 320.06" style="fill:#fff"></polygon></g></g><g id="freepik--Gears--inject-253"><path d="M192.8,129.67l2.91-.83-1.86-6.46-3.36,1a9.22,9.22,0,0,0-3.52-2.47v-3.4h-6.72v3.4a9.33,9.33,0,0,0-2.86,1.79l-3-1.44-2.94,6,2.95,1.44c0,.24,0,.49,0,.73a9.21,9.21,0,0,0,1.17,4.49h0l-2.21,2.77,5.25,4.19,2.15-2.69a9.24,9.24,0,0,0,2.85.45,9.08,9.08,0,0,0,2.1-.25l1.94,2.73,5.48-3.89-1.89-2.66A9.12,9.12,0,0,0,192.8,129.67Zm-15.24-.24a6,6,0,1,1,6.05,6A6.06,6.06,0,0,1,177.56,129.43Z" style="fill:#BA68C8"></path><path d="M192.8,129.67l2.91-.83-1.86-6.46-3.36,1a9.22,9.22,0,0,0-3.52-2.47v-3.4h-6.72v3.4a9.33,9.33,0,0,0-2.86,1.79l-3-1.44-2.94,6,2.95,1.44c0,.24,0,.49,0,.73a9.21,9.21,0,0,0,1.17,4.49h0l-2.21,2.77,5.25,4.19,2.15-2.69a9.24,9.24,0,0,0,2.85.45,9.08,9.08,0,0,0,2.1-.25l1.94,2.73,5.48-3.89-1.89-2.66A9.12,9.12,0,0,0,192.8,129.67Zm-15.24-.24a6,6,0,1,1,6.05,6A6.06,6.06,0,0,1,177.56,129.43Z" style="fill:#fff;opacity:0.6000000000000001"></path><path d="M337.58,256.24l2.9-.83L338.63,249l-3.36,1a9.22,9.22,0,0,0-3.52-2.47V244H325v3.4a9.21,9.21,0,0,0-2.86,1.79l-3-1.44-2.94,6,3,1.44c0,.24,0,.48,0,.73a9.1,9.1,0,0,0,1.17,4.49h0l-2.22,2.77,5.26,4.19,2.15-2.69a9.24,9.24,0,0,0,2.85.45,9.14,9.14,0,0,0,2.1-.25l1.94,2.73,5.48-3.89L336,261.13A9.12,9.12,0,0,0,337.58,256.24ZM322.34,256a6,6,0,1,1,6.05,6.05A6,6,0,0,1,322.34,256Z" style="fill:#BA68C8"></path><path d="M337.58,256.24l2.9-.83L338.63,249l-3.36,1a9.22,9.22,0,0,0-3.52-2.47V244H325v3.4a9.21,9.21,0,0,0-2.86,1.79l-3-1.44-2.94,6,3,1.44c0,.24,0,.48,0,.73a9.1,9.1,0,0,0,1.17,4.49h0l-2.22,2.77,5.26,4.19,2.15-2.69a9.24,9.24,0,0,0,2.85.45,9.14,9.14,0,0,0,2.1-.25l1.94,2.73,5.48-3.89L336,261.13A9.12,9.12,0,0,0,337.58,256.24ZM322.34,256a6,6,0,1,1,6.05,6.05A6,6,0,0,1,322.34,256Z" style="fill:#fff;opacity:0.6000000000000001"></path></g><g id="freepik--Character--inject-253"><polygon points="408.5 257.18 404.02 292.77 393.47 282.22 289.2 386.48 181.92 386.48 135.46 432.93 117.08 432.93 176.53 373.48 283.82 373.48 384.27 273.02 372.91 261.66 408.5 257.18" style="fill:#BA68C8"></polygon><polygon points="262.46 351.53 262.46 366.4 268.46 366.88 271.4 352.96 262.46 351.53" style="fill:#ff8b7b"></polygon><path d="M266.72,365.48s1.89-3.63,3-3.24,1.57,4.79,1.57,4.79,6,2,7.74,2.13,3.06,1.06,3.28,4.37H261.64s.14-7.46.18-8.74,1.86.32,1.86.32Z" style="fill:#263238"></path><path d="M261.87,367.62A3.1,3.1,0,0,1,263,372a.16.16,0,1,0,.27.17,3.41,3.41,0,0,0-1.19-4.81c-.17-.1-.37.18-.2.28Z" style="fill:#fff"></path><path d="M261.84,372.34l16.21.17,3.77,0c.21,0,.26-.33.05-.33l-16.22-.17-3.77,0c-.21,0-.25.33,0,.33Z" style="fill:#fff"></path><path d="M270.4,368.33a2.09,2.09,0,0,1,3-.54c.15.13.35-.16.2-.28-1.06-.87-2.51-.5-3.48.65-.14.17.12.34.27.17Z" style="fill:#fff"></path><path d="M272.11,368.86a2.1,2.1,0,0,1,3-.53c.16.13.36-.16.2-.28-1.06-.88-2.51-.5-3.48.65-.14.17.12.33.27.16Z" style="fill:#fff"></path><path d="M273.88,369.4a2.1,2.1,0,0,1,3-.53c.16.12.36-.16.2-.29-1.06-.87-2.51-.49-3.47.66-.15.17.11.33.26.16Z" style="fill:#fff"></path><path d="M258.85,204.16c.17,2.65-.19,10.8.17,15.17.67,8.34,1.58,19.15,2.3,30,.84,12.54,1.44,25.09,1.14,33.81-.77,22.37-.6,73.08-.6,73.08h9.71s11.4-50.4,13.53-73.08c1.78-18.81.84-67.26.54-79Z" style="fill:#263238"></path><path d="M259,219.33c.67,8.34,1.58,19.15,2.3,30,4.78-14.14.34-35.51.34-35.51Z" style="opacity:0.2"></path><polygon points="261.02 356.54 272.41 356.54 273.24 352.91 260.72 352.76 261.02 356.54" style="fill:#BA68C8"></polygon><polygon points="208.87 348.76 206.6 363.45 212.46 364.84 217.49 351.53 208.87 348.76" style="fill:#ff8b7b"></polygon><path d="M211,363.19s2.42-3.29,3.46-2.74.82,5,.82,5,5.67,2.92,7.33,3.29,2.86,1.52,2.57,4.82l-20.43-3.16s1.28-7.35,1.51-8.61,1.79.6,1.79.6Z" style="fill:#263238"></path><path d="M205.83,364.57a3.1,3.1,0,0,1,.44,4.48c-.13.17.1.38.24.2a3.4,3.4,0,0,0-.44-4.93c-.15-.13-.39.12-.24.25Z" style="fill:#fff"></path><path d="M205.08,369.23l16,2.64,3.72.61c.21,0,.3-.28.09-.31l-16-2.65-3.72-.61c-.21,0-.3.28-.09.32Z" style="fill:#fff"></path><path d="M214.15,366.57a2.1,2.1,0,0,1,3.06-.07c.13.15.37-.1.24-.25a2.47,2.47,0,0,0-3.54.11c-.17.15.07.36.24.21Z" style="fill:#fff"></path><path d="M215.76,367.36a2.1,2.1,0,0,1,3.06-.07c.13.15.37-.1.24-.25-.92-1-2.41-.87-3.54.12-.17.15.07.35.24.2Z" style="fill:#fff"></path><path d="M217.42,368.16a2.11,2.11,0,0,1,3.07-.06c.13.14.37-.11.24-.25-.92-1-2.41-.88-3.54.11-.17.15.07.35.23.2Z" style="fill:#fff"></path><path d="M243.05,285.08c-6,22-26.16,69.5-26.16,69.5l-9.57-1.66s10-49.46,14.56-71.36c4.14-19.77,8.69-65.18,10.16-78.7l32.1,2.89c-1.71,11.58-16.11,61.1-21.09,79.33Z" style="fill:#263238"></path><polygon points="206.43 353.11 217.66 355.07 219.1 351.63 206.6 349.35 206.43 353.11" style="fill:#BA68C8"></polygon><path d="M230.17,202.86c-.13,1.41,2.75,4.58,4.16,4.64l49.83.87c1.5.07,3.26-1,3.21-2.46-.51-17.67-4.63-78.45-6-82.28-1.71-4.71-11.19-6.41-15.33-6.78a145.86,145.86,0,0,0-19.64,0c-3.19.15-6.1.43-8.52.73a6.52,6.52,0,0,0-5.64,7.51,186.05,186.05,0,0,1,2.1,20.42c0,.34,0,.66,0,1,.11,2.3.22,4.57.23,6.82,0,.44,0,.9,0,1.34C234.39,177.5,231.42,188.71,230.17,202.86Z" style="fill:#fff"></path><path d="M250,208.6c-6.66.41-24.29,0-24.29-2.78,0-4.64,6.34-36.73,6.94-43.15.09-1,.18-2.31.28-3.9.17-3,.34-6.79.5-10.91.49-12.84.89-28.44.89-28.44s.39-3.53,15.89-2.78c0,0,3.86,18.84,4,35.42S252.27,208.46,250,208.6Z" style="fill:#BA68C8"></path><path d="M266,116.85s6.83,18.07,6.08,45.44-1.09,47.3-1.09,47.3,16.36,1,17.79-1.43c.77-1.33-1.12-25.2-2.2-39.19-1.23-15.93-3.7-42.09-4.63-45.23C280.37,118.31,266,116.85,266,116.85Z" style="fill:#BA68C8"></path><path d="M347.08,112.37c-4.8,4.22-9.7,8.27-14.77,12.17-2.52,2-5.1,3.86-7.73,5.75-1.32.94-2.66,1.85-4.05,2.77s-2.79,1.81-4.55,2.72a15.58,15.58,0,0,1-3.41,1.3,23.39,23.39,0,0,1-3.2.53,42.12,42.12,0,0,1-5.54.17,92.73,92.73,0,0,1-10.1-1c-2.83-.41-5.6-.91-8.35-1.48l-1.91-.41c-3-.65-5.92-1.4-8.9-2.24l2.94-13a60.37,60.37,0,0,0,9.38,2.51c3,.67,6,1.3,8.95,1.85s5.91,1,8.71,1.29a34.55,34.55,0,0,0,3.93.19,13.7,13.7,0,0,0,1.49-.11,3.43,3.43,0,0,0,1-.28c1.11-.44,2.47-1.12,3.78-1.8s2.67-1.45,4-2.19c2.71-1.48,5.41-3.07,8.13-4.62,5.42-3.15,10.91-6.31,16.4-9.41Z" style="fill:#BA68C8"></path><path d="M285.38,135.34l-1.91-.41-1-7.1Z" style="opacity:0.2"></path><path d="M354.82,100s.89,2.94.23,4.5-3.78,2.34-3.78,2.34S353,102,354.82,100Z" style="fill:#ff8b7b"></path><path d="M354.82,100s.89,2.94.23,4.5-3.78,2.34-3.78,2.34S353,102,354.82,100Z" style="opacity:0.2"></path><path d="M354.49,102.76a13.13,13.13,0,0,0-2.79,3.69c1.48.49,3.88-.71,4.42-.11s-1,1.62-3.41,2.82c-1.27.61-1.71,2.06-3.4,2.65a14.84,14.84,0,0,1-2.23.59c-1.86-.7-3.87-5.28-3.87-5.28l4.44-3.39s4.09-3.11,5.82-3.73,6.24-3.56,6.55-2.81C360.46,98.24,357.39,100.62,354.49,102.76Z" style="fill:#ff8b7b"></path><path d="M241.79,136.85l-8.85,21.92c.17-3,.34-6.79.5-10.91Z" style="opacity:0.2"></path><path d="M266.59,82.64a13.63,13.63,0,0,0-10.73,1.73c-2.06,1.35-3.78,3.28-3.47,5.87a146.19,146.19,0,0,0,3.44,16l19.52-11.91s2.91-3.56-1.62-8.3C272.27,84.54,269.3,83.31,266.59,82.64Z" style="fill:#263238"></path><path d="M264.77,120.3a11.29,11.29,0,0,1-.2-3.81l.95-3.49,0-.07h0l-5.67-6.2-3.9-4.29c.22,4.51-1.15,10-2.78,14.7C253.46,119.23,263.29,124.83,264.77,120.3Z" style="fill:#ff8b7b"></path><g style="opacity:0.2"><path d="M265.52,113l-.95,3.49c-2.15-1-4.39-3.14-4.89-5.44-.35-1.66.41-3.2,1.08-3.28Z"></path></g><path d="M274.3,105.75c-.21.76-.45,1.5-.7,2.24-2.22,6.5-10.26,7-15.23,2.19l0,0a13,13,0,0,1-1.24-1.41c-3.15-4.21-2.33-7.42-1.79-14.71a10,10,0,0,1,14.95-8C276.35,89.53,276.4,98.16,274.3,105.75Z" style="fill:#ff8b7b"></path><path d="M260.79,89.35s7.06,5.29,15.26,2.88c4.16-1.22,3.46-9.75.19-11.4-2.67-1.35-4.84,1.93-4.84,1.93a15.77,15.77,0,0,0-8.76-1.89c-5.5.24-7.78,3.41-7.78,3.41A3.71,3.71,0,0,0,251.19,87c-.74,2.51,2,7.3,2,7.3Z" style="fill:#263238"></path><path d="M267,97.91c-.08.57.16,1.07.53,1.12s.74-.37.82-.94-.16-1.07-.54-1.12-.73.37-.81.94" style="fill:#263238"></path><path d="M269.69,107h.2a.22.22,0,0,0,.19-.24.21.21,0,0,0-.24-.19,3.14,3.14,0,0,1-3.41-3,.21.21,0,0,0-.24-.19.22.22,0,0,0-.19.24A3.58,3.58,0,0,0,269.69,107Z" style="fill:#263238"></path><path d="M255.23,94.72s2.2.12,2.28,2-.11,2.13-.11,2.13l2.67.19s-1.5-5.63.39-5.53-.87-4.05,1.74-4.79c2.79-.79,10-1.12,12.81,3.3a11.15,11.15,0,0,0-4.19-6.71c-3.46-2.36-10.44-2.89-13.28.53S255.23,94.72,255.23,94.72Z" style="fill:#263238"></path><path d="M251.56,98.44A7,7,0,0,0,254.3,103c2,1.43,3.8-.13,4-2.44.14-2.07-.71-5.31-3-5.83a3.12,3.12,0,0,0-3.67,3.72" style="fill:#ff8b7b"></path><path d="M272.87,98.59c-.08.57.16,1.07.53,1.12s.74-.37.82-.94-.17-1.07-.54-1.12-.74.37-.81.94" style="fill:#263238"></path><path d="M275,97.2a.29.29,0,0,1-.21-.19,1.46,1.46,0,0,0-.73-1,1.74,1.74,0,0,0-1.19-.07.29.29,0,0,1-.37-.18.3.3,0,0,1,.18-.37,2.32,2.32,0,0,1,1.64.1,2.06,2.06,0,0,1,1,1.29.28.28,0,0,1-.19.36A.26.26,0,0,1,275,97.2Z" style="fill:#263238"></path><path d="M265.49,96.29a.27.27,0,0,1-.12,0,.28.28,0,0,1-.15-.38,2.35,2.35,0,0,1,1.18-1.14,2.08,2.08,0,0,1,1.64.14.29.29,0,0,1,.14.39.29.29,0,0,1-.39.13,1.51,1.51,0,0,0-1.18-.11,1.68,1.68,0,0,0-.86.83A.3.3,0,0,1,265.49,96.29Z" style="fill:#263238"></path><path d="M270.26,98.68a42.33,42.33,0,0,1,1.78,4.85c.09.68-2.05.66-2.05.66Z" style="fill:#ff5652"></path><path d="M265,115.8v0s0,0,0,0Z"></path><path d="M232.75,121c-3.37,5.86-6.54,11.84-9.63,17.85-1.56,3-3.07,6-4.6,9l-2.25,4.5-1.12,2.2-.56,1.07-.26.5a4.18,4.18,0,0,0-.18.39l-.15.36-.11.28-.18.53-.14.47c-.34,1.18-.52,2.11-.7,3.05s-.32,1.82-.46,2.71c-.27,1.77-.5,3.49-.69,5.22-.39,3.45-.73,6.86-1,10.28-.52,6.83-.89,13.63-1,20.49a3.84,3.84,0,0,0,7.56,1v0c1.63-6.57,3.11-13.19,4.6-19.75.77-3.27,1.49-6.55,2.27-9.77.4-1.61.78-3.21,1.19-4.75.2-.78.41-1.54.63-2.25a18.54,18.54,0,0,1,.64-1.86.81.81,0,0,1,.06-.13s0-.07,0-.06h0l0,.07,0,.1a2.26,2.26,0,0,1-.11.22c-.08.13,0,0,0,0l.1-.16.2-.31.39-.61,1.38-2.23,2.67-4.37c1.74-2.93,3.48-5.85,5.16-8.79,3.39-5.88,6.68-11.8,9.76-17.85A7.71,7.71,0,0,0,232.76,121Z" style="fill:#BA68C8"></path><path d="M201.2,219v-6.27a.39.39,0,0,1,.39-.39H205v-1h-3.4a1.4,1.4,0,0,0-1.4,1.4V219Z" style="fill:#263238"></path><path d="M224.71,212.68V219h1v-6.27a1.4,1.4,0,0,0-1.4-1.4h-3.4v1h3.4A.4.4,0,0,1,224.71,212.68Z" style="fill:#263238"></path><path d="M239.05,221.6v31.6a2.66,2.66,0,0,1-2.66,2.66H190.78a2.67,2.67,0,0,1-2.66-2.66V221.6a2.66,2.66,0,0,1,2.66-2.65h45.61A2.65,2.65,0,0,1,239.05,221.6Z" style="fill:#263238"></path><g style="opacity:0.5"><path d="M239.05,221.6v31.6a2.66,2.66,0,0,1-2.66,2.66H190.78a2.67,2.67,0,0,1-2.66-2.66V221.6a2.66,2.66,0,0,1,2.66-2.65h45.61A2.65,2.65,0,0,1,239.05,221.6Z" style="fill:#fff"></path></g><rect x="230.34" y="218.95" width="2.02" height="36.91" style="fill:#263238"></rect><rect x="194.82" y="218.95" width="2.02" height="36.91" style="fill:#263238"></rect><path d="M216.64,202.22s3.26,7.36,2.9,9-2.57-1.41-2.57-1.41Z" style="fill:#ff8b7b"></path><rect x="203.59" y="210.1" width="18.37" height="3.37" style="fill:#263238"></rect><rect x="203.59" y="210.1" width="18.37" height="3.37" style="fill:#fff;opacity:0.30000000000000004"></rect><path d="M209.94,201.1l-2.54,7.5c-.51,2.14,6.41,5.27,9.08,3.42,2.11-1.45.29-10.15.29-10.15A7.39,7.39,0,0,0,209.94,201.1Z" style="fill:#ff8b7b"></path><path d="M207.4,208.6c-.53,2.39-.22,7.07,3.6,7.56a9,9,0,0,0,2.52.05,3.87,3.87,0,0,0,2.38.2c1.92-.61,1.21-5.44,1.21-5.44Z" style="fill:#ff8b7b"></path><path d="M254.35,113.49s-5.44-1.16-6.62,3.36v14.93l3.13,3.91-2.47,2.46-.07,19.19,5.78,2c.12-5.34,1-14.92-.34-29.09A67.81,67.81,0,0,1,254.35,113.49Z" style="fill:#BA68C8"></path><path d="M254.35,113.49s-5.44-1.16-6.62,3.36v14.93l3.13,3.91-2.47,2.46-.07,19.19,5.78,2c.12-5.34,1-14.92-.34-29.09A67.81,67.81,0,0,1,254.35,113.49Z" style="opacity:0.30000000000000004"></path><path d="M264.57,116.49s2.55,2.59,3.82,8.51,3.84,31.81,3.76,35.1l5.72-4.29-2.32-20.56-3.39-2.1,2.85-3.74s-2.62-9.44-4.31-11.85-5.6-3-5.6-3Z" style="fill:#BA68C8"></path><path d="M264.57,116.49s2.55,2.59,3.82,8.51,3.84,31.81,3.76,35.1l5.72-4.29-2.32-20.56-3.39-2.1,2.85-3.74s-2.62-9.44-4.31-11.85-5.6-3-5.6-3Z" style="opacity:0.30000000000000004"></path></g></svg>
