<svg xmlns="http://www.w3.org/2000/svg" viewBox="0 0 500 500"><g id="freepik--Floor--inject-28"><ellipse id="freepik--floor--inject-28" cx="252.93" cy="355.87" rx="236.72" ry="127.52" style="fill:#f0f0f0"></ellipse></g><g id="freepik--Shadows--inject-28"><ellipse id="freepik--Shadow--inject-28" cx="252.18" cy="365.71" rx="66.74" ry="38.53" style="fill:#e0e0e0"></ellipse><ellipse id="freepik--shadow--inject-28" cx="120.69" cy="382.39" rx="73.3" ry="42.32" style="fill:#e0e0e0"></ellipse><ellipse id="freepik--shadow--inject-28" cx="375.99" cy="386.24" rx="73.3" ry="42.32" style="fill:#e0e0e0"></ellipse></g><g id="freepik--Plants--inject-28"><g id="freepik--plants--inject-28"><path d="M414.36,338.06s-2.49-23.84,4.07-41.48,18.08-30.26,30.58-34,25.74,9.1,13.88,20.09S428.63,307.1,424,339.57Z" style="fill:#BA68C8"></path><path d="M414.36,338.06s-2.49-23.84,4.07-41.48,18.08-30.26,30.58-34,25.74,9.1,13.88,20.09S428.63,307.1,424,339.57Z" style="opacity:0.15"></path><path d="M416.88,332.74h-.15a.73.73,0,0,1-.62-.82c5.16-37.7,27.94-58.7,39.26-64.53a.72.72,0,1,1,.66,1.29c-11.09,5.71-33.4,26.33-38.48,63.44A.72.72,0,0,1,416.88,332.74Z" style="fill:#fff"></path><path d="M420.61,355.41a25.27,25.27,0,0,0-.66-8.84c-.72-3.09-2.58-6-2.73-9.24-.12-2.58,1.49-5.5,3.32-7.24s4.38-3.06,5.65-5.33,1-5.19,1.63-7.78a11.39,11.39,0,0,1,13.36-8.53c2.7.56,5.08,2.06,7.55,3.28a13.1,13.1,0,0,0,8,1.56,56.88,56.88,0,0,1,9.19-1c5.25,0,11.85,1.79,13.65,7.34a6.57,6.57,0,0,1,.14,4.24l-.06.17c-1.52,3.76-6.31,4.53-9.39,6.37-.84.51-2.25,1.22-2.57,2.24s.56,2.42,1,3.36c1.12,2.43,2.74,4.77,2.89,7.52.2,3.93-3.08,7.71-6.39,9.38a21.06,21.06,0,0,1-10.39,1.81c-1.76-.08-3.68-.23-5.13.78a5.57,5.57,0,0,0-2,4c-.19,1.52-.05,3.07-.19,4.6A13.57,13.57,0,0,1,439,375a16,16,0,0,1-11.71-.14c-3.08-1.21-5.72-4.91-6.32-8.13A42.31,42.31,0,0,1,420.61,355.41Z" style="fill:#BA68C8"></path><path d="M421.88,364.39h-.05a.58.58,0,0,1-.49-.66c5.08-36.26,41.47-45.85,50.2-46.28a.59.59,0,0,1,.61.55.57.57,0,0,1-.55.61c-8.55.42-44.14,9.8-49.11,45.28A.57.57,0,0,1,421.88,364.39Z" style="fill:#fff"></path><path d="M460.83,341.58a.58.58,0,0,1-.33-.12c-.1-.08-10.67-8.24-26.05-4a.57.57,0,0,1-.71-.4.59.59,0,0,1,.41-.72,32.23,32.23,0,0,1,27.08,4.23.59.59,0,0,1,.09.82A.57.57,0,0,1,460.83,341.58Z" style="fill:#fff"></path></g><g id="freepik--plants--inject-28"><path d="M80.55,327.05c1.61-9.13,1.34-24.88-5.42-41.57-7.23-17.86-18.36-30.75-29.57-29C35.11,258.11,35.29,272,48.12,289c9,11.92,17.71,26.65,20.36,42.39L74.05,352Z" style="fill:#BA68C8"></path><path d="M80.55,327.05c1.61-9.13,1.34-24.88-5.42-41.57-7.23-17.86-18.36-30.75-29.57-29C35.11,258.11,35.29,272,48.12,289c9,11.92,17.71,26.65,20.36,42.39L74.05,352Z" style="fill:#BA68C8"></path><g style="opacity:0.15"><path d="M80.55,327.05c1.61-9.13,1.34-24.88-5.42-41.57-7.23-17.86-18.36-30.75-29.57-29C35.11,258.11,35.29,272,48.12,289c9,11.92,17.71,26.65,20.36,42.39L74.05,352Z"></path></g><path d="M77.86,333.63a.66.66,0,0,1-.49-.57C74.83,305.92,62.61,276,49,263.34a.65.65,0,1,1,.89-1c13.87,12.8,26.26,43.13,28.83,70.55a.66.66,0,0,1-.59.72A.9.9,0,0,1,77.86,333.63Z" style="fill:#fff"></path><path d="M76.23,356.75A38.94,38.94,0,0,1,57.07,363c-11.8.82-16.44-5.19-16.44-5.19s5.54-10.51,12.41-13c0,0-11.4,1.29-20.92,6.5,0,0-7.11-.51-9-11.61,0,0,4.79-6.15,19.22-8.44,0,0-8.4-2.91-21.06-.84-1,.28-3.69-14.09-4.32-20.66s2-6.28,7.13-7.18,22.41-.24,25.32,2.81,3.68,12.68,3.68,12.68,3.74-6.42,3-12.25a30.22,30.22,0,0,1,13.36,2.76c1.25.58,1.92,10.24-1.77,17.6a31.27,31.27,0,0,0,8.1-13.88c6.88,5.15,8.5,11.27,9,16.75C85.34,335.51,84.36,349,76.23,356.75Z" style="fill:#BA68C8"></path><path d="M76.17,357.4a.63.63,0,0,1-.55-.42c-7.68-20.33-40.59-46.07-52.88-49.6a.66.66,0,0,1-.45-.82.67.67,0,0,1,.81-.45c12.49,3.6,45.95,29.75,53.75,50.41a.66.66,0,0,1-.39.84A.57.57,0,0,1,76.17,357.4Z" style="fill:#fff"></path></g></g><g id="freepik--Characters--inject-28"><g id="freepik--girl-arm--inject-28"><path d="M193.72,153l-41.19-18.28-1-22.5c8-.48,10.53,1.26,14.13,3.49,5.27,3.25,23.4,12.58,31.94,16.59l9.71-27a38,38,0,0,0,8.19-2c2.88-1.3,6.09.4,6.09.4S213,145.3,209.76,153C207.91,157.37,200.82,156.1,193.72,153Z" style="fill:#ffa8a7"></path><path d="M151.54,112.17s5.34-1.63,12.56,2,23.62,12.53,23.62,12.53-5,13.67-10.87,20.95l-20.72-8.84Z" style="fill:#455a64"></path></g><g id="freepik--character-boy-center--inject-28"><g id="freepik--Character--inject-28"><path d="M216.07,289.77c.25-12.06,2.61-20.36,2.89-23.7,0,0-.89-71.71-.89-83.34l61.14-2.49s-2,75.25-2,85.21-6.34,60-8.21,79.69c-3.54,4.62-7.68,4.94-13.24.42,0,0-.46-2.75-1.18-11.83-.84-10.39-2.5-34.58-2.6-44.76-.12-12.54-.22-18.07.14-24.11.43-6.91-1.23-53.53-1.23-53.53s-7.66,44.47-9.57,59.57c-2.18,17.31-9.18,68-9.2,78.53,0,1.89,0,4.08,0,6.45,0,5.7-.16,7.21.75,9.42,1.6,3.86-12.07,6.28-12.7,3.54l-1.47-11.33v-.33h0V350C218.76,339.25,215.71,307.25,216.07,289.77Z" style="fill:#b16668"></path><path d="M296,363.56a4.59,4.59,0,0,1-.19,3.38c-.47,1-5.63,3.9-12.59,3.43a28.93,28.93,0,0,1-14.39-5c-2.66-1.76-5.42-2.09-8.86-2.28s-8-1.92-8.73-3.53.11-4.39.11-4.39Z" style="fill:#263238"></path><path d="M267.94,341.85l.55-.12a2.21,2.21,0,0,1,.92-.05,1.79,1.79,0,0,1,.86.58,17.16,17.16,0,0,1,1.78,2.79c1.46,2.38,4.52,4.35,7.86,6.15,2.28,1.22,4.51,2.17,6.85,3.23s5.57,1.73,7.45,3c2.73,1.84,3.08,6.47,0,8.3-2.68,1.57-9.75,3.28-17.15,1.18-4-1.14-8.52-5.45-13.81-5.87-3.37-.26-9.74-1.21-11.91-3.77-.8-1.13.27-4.73,1.15-7.83,1-3.39,1.68-8.71,2.8-8.41a18.09,18.09,0,0,0,.2,1.82c.12.52.68,1,1,1.4l1.3,1.5a6.59,6.59,0,0,0,1.93,1.72c1.33.68,2.92.39,4.38.08.07,0-.6-2.66-.67-2.92a1.28,1.28,0,0,1-.05-.64,1,1,0,0,1,.44-.49A10.65,10.65,0,0,1,267.94,341.85Z" style="fill:#455a64"></path><path d="M246.19,383.28c.41.39.29,3-.17,3.75s-3.28,3.15-8.34,3.52c-4.84.34-9.16-.31-12-2.11s-4.21-3.79-4.48-6.55,0-5.41-1.27-7.53c-1.21-2-3.15-4.16-3.57-5.23-.91-2.3,0-5.61,0-5.61Z" style="fill:#263238"></path><path d="M233,359.23a11.09,11.09,0,0,0,.56,3.07,28.11,28.11,0,0,0,3,6.06,25.76,25.76,0,0,0,2,2.85c1.46,1.74,3.28,3.16,4.83,4.83a9.88,9.88,0,0,1,3,5.94c.21,3.79-3.91,5.08-7.08,5.65a23.29,23.29,0,0,1-10.3-.52,9.46,9.46,0,0,1-6.93-7.56c-.18-1.05-.11-2.13-.24-3.19a14.75,14.75,0,0,0-2.95-6.63,20.08,20.08,0,0,1-2.26-3.62c-1-2.34-.2-5,.44-7.32.54-2,1.16-4.31,1.87-4.12,0,1.05,0,1.16.75,1.87,1,.9,1,2.25,2,3a13.5,13.5,0,0,1-.7-2.7,1.54,1.54,0,0,1,.21-1.07,2.84,2.84,0,0,1,1.17-.62,22.72,22.72,0,0,1,4.6-1.05,13.6,13.6,0,0,1,4.5,0,1.91,1.91,0,0,1,1.13.65,2.31,2.31,0,0,1,.4,1.3C233,356.66,232.92,358.23,233,359.23Z" style="fill:#455a64"></path><path d="M237,369.16c-1.41-1.06-4.57-1.08-6.3-.89a10.37,10.37,0,0,0-4.92,1.73,1.14,1.14,0,0,1-1.45-.12h0a1.05,1.05,0,0,1,.11-1.61,10.59,10.59,0,0,1,5.53-2c4.26-.3,5.51.43,5.51.43S237.4,367.9,237,369.16Z" style="fill:#f5f5f5"></path><path d="M240.23,373c-1.77-1.05-5.26-.9-7-.71a9.81,9.81,0,0,0-4.78,1.82A1.12,1.12,0,0,1,227,374h0a1.06,1.06,0,0,1,.11-1.61,11.08,11.08,0,0,1,5.65-2.21c4.26-.3,5.37.57,5.37.57A3.5,3.5,0,0,1,240.23,373Z" style="fill:#f5f5f5"></path><path d="M228.26,362.14a10.63,10.63,0,0,1,5.35.45c.75.42,1.24,1.61.76,1.91a9.69,9.69,0,0,0-4.74-.65,14.07,14.07,0,0,0-4.61,1.26c-.36.16-.8.39-1.17.6a1,1,0,0,1-1.4-.44h0a.93.93,0,0,1,.37-1.21A13.53,13.53,0,0,1,228.26,362.14Z" style="fill:#f5f5f5"></path><path d="M276.77,349.37a3.13,3.13,0,0,0-2.49-1.67c-1.53-.28-4.24.85-5.92,2.23a1.26,1.26,0,0,0,.18,2.08h0a1.25,1.25,0,0,0,1.44-.16A9.59,9.59,0,0,1,276.77,349.37Z" style="fill:#f5f5f5"></path><path d="M281.52,352a3.6,3.6,0,0,0-2.95-1.52s-4,.12-6.48,2.42a1.23,1.23,0,0,0,.17,2h0a1.19,1.19,0,0,0,1.38-.16A9.63,9.63,0,0,1,281.52,352Z" style="fill:#f5f5f5"></path><path d="M286.76,354.43a4,4,0,0,0-3.06-1.38,10.74,10.74,0,0,0-6.2,2.45,1.23,1.23,0,0,0,.17,2h0a1.19,1.19,0,0,0,1.38-.16A9.16,9.16,0,0,1,286.76,354.43Z" style="fill:#f5f5f5"></path><path d="M242.29,274.26l6.12-40.53L251,266.29c.21,2.66-.47,12.52-.3,20.66s3.71,44.76,3.71,44.76,6.93,4.74,16.15,0c.25-.75,5.16-42.42,5.6-47.77.55-6.62,1.51-12.61,1.73-18.25s.62-17.3.53-26.2.76-59.25.76-59.25l-62.36.19-.78,84.44c-.38,1.89-2.51,19.61-1.95,28.48s4.32,50.1,4.32,50.1,5.62,3.59,14.08,0c0,0,5.24-42,6.75-49.92S241.75,277.82,242.29,274.26Z" style="fill:#37474f"></path><path d="M248.41,233.73l1.89-17.19a37.51,37.51,0,0,0,16.75-6.14s-1,2.2-6.23,5.63a23.75,23.75,0,0,1-6.88,3.06L252,232.77l-1,32.92Z" style="fill:#263238"></path><path d="M264.5,92.48c8.08,0,11.71,1.53,15.65,6.33s22.67,30,22.67,30,13.24-12.59,20-18.85c4.22-4.34,8.36-8.59,12.89-9.89,4.73-1.36,2.37,7.44,4.25,8.16l-5.59,8.14s-20.63,27.46-27.84,31.72c-2.5,1.48-5.14,4.66-12.11-1-9.15-7.45-25.75-26.15-25.75-26.15Z" style="fill:#b16668"></path><path d="M261.22,92.47c7.46-1.26,12.19-1.73,18.93,5.36s19.78,27.1,19.78,27.1-.77,10.27-14,14.29l-20.45-14.29Z" style="fill:#455a64"></path><path d="M216.07,189c8.39,6.11,46.43,12.88,64.08,0,0,0-.41-49.31-1.79-75.41-.07-1.18-.15-2.33-.27-3.45,0-.37-.09-.74-.13-1.11a35.67,35.67,0,0,0-.89-4.62c-.07-.25-.15-.5-.23-.75a15.5,15.5,0,0,0-.58-1.66c-.11-.29-.23-.58-.36-.86a8.1,8.1,0,0,0-.39-.78.84.84,0,0,0-.06-.14c-.13-.25-.28-.5-.42-.74s-.32-.52-.51-.79-.34-.49-.51-.71-.41-.5-.63-.74a8.2,8.2,0,0,0-.65-.67l-.46-.43a4.31,4.31,0,0,0-.46-.39c-.2-.17-.42-.33-.63-.48A15.23,15.23,0,0,0,269,94a6.62,6.62,0,0,0-.66-.3c-.05,0-.12,0-.15-.07l-.79-.3a13.93,13.93,0,0,0-1.38-.45c-.47-.13-1-.25-1.47-.37s-1.2,0-1.88,0l-1.4,0c-.49,0-1,0-1.5,0-6.6.29-13.57-1-21.17-.08-.5.07-16.4,1.85-20.07,3.18-3.42,1.25-6.5,7.33-7.26,10.7C209,116.23,219,148.44,219,148.44Z" style="fill:#BA68C8"></path><path d="M236.37,94.29c-.36,1.23,2,4.93,5.81,6.64s9.42,2.5,13,1.27,7.9-5.69,4.13-9.66h0c-6.47.21-13.3-1-20.73-.09C238.55,92.44,236.74,93.06,236.37,94.29Z" style="fill:#455a64"></path><path d="M278.54,117.38c-6.4,2.23-16.91,4-30.13,4.77a175.1,175.1,0,0,1-36.45-2c1.45,8.42,4,18,5.62,23.57,23.11,4.71,49.55,1,61.76-2.87C279.12,132.29,278.88,124.36,278.54,117.38Z" style="opacity:0.30000000000000004"></path><path d="M238.21,57.8l-2.34,2.56-1.2-13.22a6.28,6.28,0,0,0-5.2,1.83c-2.23,2.28-1,9.43,1.8,16.43,0,0,2.71,12.74,3.8,14.83a5.72,5.72,0,0,0,3.33,2.69Z" style="fill:#263238"></path><path d="M237.91,66c-1,.61-2.49-1.36-3.75-2.68s-5.39-3.13-7.45,1.2,1.82,10.26,5.07,11.28c5.59,1.76,6.43-1.83,6.43-1.83l.38,20.58c5.86,10.6,25.69,5.17,18.26-1.86l0-5.23a58,58,0,0,0,8.44,0c4.12-.63,5.81-3.48,7.06-7.94,2-7.15,2.76-12.93,1.06-27-1.86-15.42-19.8-15.58-29.49-9.49S237.91,66,237.91,66Z" style="fill:#b16668"></path><path d="M235.51,38.71a49.91,49.91,0,0,1,10.58-3.19c7.83-1.7,15.8-3.26,22.94-6.87a5,5,0,0,1,2.8-.81c1.89.25,2.71,2.53,2.79,4.43a15.57,15.57,0,0,1-.68,5.21,3,3,0,0,1,4.21.07,5.18,5.18,0,0,1,1.21,4.39c-.46,3.5-3.14,6.42-6.31,8A24.85,24.85,0,0,1,262.73,52,70.6,70.6,0,0,1,248,50.85a10.52,10.52,0,0,0-3.57-.26,3.22,3.22,0,0,0-2.66,2.12C241.25,54.66,240.71,67.9,238,68c-.5,0-2.43-3.33-3.69-4.52-1.58-1.49-3.17-12.84-3.45-14.94a1,1,0,0,0-.22-.44c-1.78-2.5.31-6.7,2.51-8.07A22.77,22.77,0,0,1,235.51,38.71Z" style="fill:#263238"></path><path d="M231.61,48.23a3.73,3.73,0,1,1-5.68-4.84Z" style="fill:#263238"></path><path d="M256.83,87.45s-9.19-.88-12.4-2.59A10.56,10.56,0,0,1,240,80.47a14.41,14.41,0,0,0,2.52,5.18c2.35,3,14.32,4.63,14.32,4.63Z" style="fill:#9a4a4d"></path><path d="M254,63.69a1.84,1.84,0,1,1-1.84-1.92A1.88,1.88,0,0,1,254,63.69Z" style="fill:#263238"></path><path d="M252.07,56.74l-3.94,2.17a2.35,2.35,0,0,1,.92-3.13A2.2,2.2,0,0,1,252.07,56.74Z" style="fill:#263238"></path><path d="M254.85,76.41,260,78.33A2.7,2.7,0,0,1,256.5,80,2.88,2.88,0,0,1,254.85,76.41Z" style="fill:#9a4a4d"></path><path d="M270.27,58.27l-3.59-2.76A2.17,2.17,0,0,1,269.8,55,2.38,2.38,0,0,1,270.27,58.27Z" style="fill:#263238"></path><path d="M269.16,63.16a1.86,1.86,0,0,1-1.84,1.91,1.91,1.91,0,1,1,1.84-1.91Z" style="fill:#263238"></path><polygon points="260.28 61.85 260.89 72.92 266.67 70.95 260.28 61.85" style="fill:#9a4a4d"></polygon><path d="M227.32,93.9c-12.28.58-15.91,2.51-20,11.32-3,6.44-18,46.22-20.75,53.34-2.41,6.35-2.73,9.61,2.53,13.95s10.56,8.38,16,12.39c3.31,2.45,6.28,5.11,9.62,7.51,5.26,3.77,10.4,8,16,11.17,6.7,3.81,18.81,8.82,25.19,1.84,1.26-1.38,2.43-3,1.74-5a6,6,0,0,0-2.73-3,22.85,22.85,0,0,0-3.82-1.6,49.68,49.68,0,0,1-8.5-4c2.33-.74,4.88-.56,7.25-1a2.89,2.89,0,0,0,1.71-1,1.42,1.42,0,0,0,0-1.85,2.14,2.14,0,0,0-1-.41q-5-1.12-10.11-1.91a58.55,58.55,0,0,1-9.31-1.85c-4.91-1.6-8-5.21-11.5-8.8-3.83-3.93-7.48-8-11-12.22L225,124.29S233.45,102.21,227.32,93.9Z" style="fill:#b16668"></path><path d="M229.07,93.64c-4.71.26-12,.82-15.41,3-3.95,2.53-5.44,4.48-9.36,14.08s-11.63,29.69-11.63,29.69a26.27,26.27,0,0,0,22.65,10.17l13-30S234.37,104.66,229.07,93.64Z" style="fill:#455a64"></path></g></g><g id="freepik--character-boy--inject-28"><path d="M247.8,202c-1.55-6.35,4.24-11.78,8.94-15,7.25-5,13.68-8,21.15-12.48,6.8-4.1,27.62-18.59,27.62-18.59s10.77-16.95,18.14-29.92c9.14-16.05,16.33-26.31,31.63-24.47l-.14,19.36s-32.66,44.38-34.67,46.77-2.82,3.46-6.27,5c-9.35,4.32-21.18,9.72-30.58,15.58a15,15,0,0,0-6,7,29.73,29.73,0,0,1-3.88,6.51,30.93,30.93,0,0,1-2.46,2.78c-.59.58-1.68,1.77-2.57,1.68a1.36,1.36,0,0,1-1-.72,2.74,2.74,0,0,1-.29-1.26c-.06-2.67,1.9-5,2.17-7.67,0-.24-.31-.12-.36-.35s-4.17,2.16-4.53,2.4a47.88,47.88,0,0,0-4.22,3.3c-1.36,1.17-2.71,2.37-4.1,3.5a4.69,4.69,0,0,1-5,1A6.55,6.55,0,0,1,247.8,202Z" style="fill:#ffbda7"></path><path d="M357.24,101.36c-4.89-1-16.87-.87-22.29,6.41-5.72,7.67-23.41,36.73-23.41,36.73s4.52,9.7,17.75,13L352,126.56Z" style="fill:#455a64"></path><path d="M398.66,402.49c.4,1.57,1.23,6,9.49,6s13-3.39,14.61-7.58.69-7.31.54-11,2.57-6,3.17-8c.89-2.91-1.54-6.92-1.54-6.92Z" style="fill:#263238"></path><path d="M319.26,375.52a4.94,4.94,0,0,0,.38,4c.6.81,6.14,4.83,13,4a31.59,31.59,0,0,0,14.08-4.91c4-2.36,6.75-2.7,10.82-2.69s6.85-.75,7.19-1.78c.59-1.79.63-2.94-.23-2.91Z" style="fill:#263238"></path><path d="M415.39,307a61,61,0,0,0-8.56-24.52s-4-59-7.4-90H338.35s1.82,80.39,2.8,92.18c.75,9,6.92,65.42,6.93,65.53l.89,9.41c4.79,2.41,8.55,2.05,12.63-.88l.87-8.33s5-35.77,5.31-44.3a69.31,69.31,0,0,0-2.39-21.61l7.41-40.07s5.92,28.32,9.27,44.18c3.83,18.17,26,77.67,26,77.69l1.41,4.95c-.31,5.4,12.68,1.72,12.54-2.53C422,368.71,417.84,325.47,415.39,307Z" style="fill:#ffbda7"></path><path d="M379.66,289.38c-3.34-15.86-6.86-45-6.86-45l-4.66,40.71c-16.74,7.24-28.27.29-28.27.29-3-30.16-1.52-92.93-1.52-92.93h61.08c3.38,31,9.39,89.33,9.39,89.33S404.06,291.84,379.66,289.38Z" style="fill:#37474f"></path><path d="M372.8,244.42l-4.14-19.06s-9.24-2.11-15.84-7.4c0,0,2.42,6.08,12.54,10.73l4.23,17.86-1.13,35.76Z" style="fill:#263238"></path><path d="M409.5,371.24,409,369.6c-.54.54-.46,1-.48,2.47,0,1.16,0,2.28-.15,3.82a35.16,35.16,0,0,1-1.1,5.95c-1.07,4.52-2.27,6.34-5.45,11.93-.76,1.32-2.58,3.53-3.12,5s-.7,4,1,5c4.83,2.86,12.28,2.08,17-.14a10.15,10.15,0,0,0,5.94-9.21c0-1.15-.24-2.29-.29-3.44a16.26,16.26,0,0,1,2-7.58,21.9,21.9,0,0,0,1.74-4.23c.64-2.67-.62-5.36-1.67-7.76-.9-2.07-1.95-4.84-2.66-4.52l.28,1.82c-.74,1.12-3,2.47-5.79,3C414.47,372.07,409.7,372.6,409.5,371.24Z" style="fill:#455a64"></path><path d="M348.46,354.26c-.63,0-1.27.49-2.39,2.13a19.79,19.79,0,0,1-5.84,5.6c-4.15,2.92-10.72,5.87-17.47,8.4-3.68,1.37-4.38,4-3.17,6.41,1.91,1.9,8.4,6.35,19.06,3.1,6.61-2,8.94-5.4,13.67-6,3.34-.43,9.14.49,12.55-2.27,1.08-2.58.21-5.18-.13-8.76s-1.49-9.31-2.62-9.08l-.2,1.89c-.91,4.15-10.45,4.55-13.15,1.84Z" style="fill:#455a64"></path><path d="M374.22,100.49c10.6.66,24.43.53,25.08,11.39,1,16.66-2.21,57.71-2.21,57.71l3.43,28.73c-7.77,8.3-43.11,12.64-62.95.47,0,0-1.13-62.33.43-71.76,2.8-17,11.09-25.09,17.28-25.57Z" style="fill:#BA68C8"></path><path d="M379,105.82c2.44-2.46,3.2-4.82,1.46-5-2.13-.15-4.27-.24-6.28-.37l-15,.77s-3.41,3.44-2.4,6.31,4.3,4.3,8.34,4.14A21.71,21.71,0,0,0,379,105.82Z" style="fill:#455a64"></path><path d="M337.8,128.59c-.37,3.94-.55,11.72-.6,20.73,19.33,6.57,47.29,3.05,61.2.61.42-7.31.82-13.23,1-20.72C377.38,134,352.31,132.22,337.8,128.59Z" style="opacity:0.30000000000000004"></path><path d="M388.77,101.92c6.81,0,12.11.43,16.87,6.28,3.33,4.08,28.07,34.54,31,39.61s3.13,7.06-1.21,13.42c-3.6,5.27-23.66,35-30.15,41.73s-15.16,7.86-19.45,6.06-9.79-6.1.85-11c7.46-3.4,11.75-6.89,12.62-10.25l-.55-4.8,4,0L416.87,154l-24.71-26.52S383.7,112.71,388.77,101.92Z" style="fill:#ffbda7"></path><path d="M386.45,101.49s9.14-.16,12.58,1.05,6.28,4,11.13,10,18.23,23.08,18.23,23.08-1.5,11.45-16,14.73l-21.17-20.9S382.58,120.69,386.45,101.49Z" style="fill:#455a64"></path><circle cx="356.52" cy="61.33" r="16.94" transform="translate(32.62 222.44) rotate(-36.21)" style="fill:#263238"></circle><path d="M386,72.91S383.44,85.85,382.37,88A5.78,5.78,0,0,1,379,90.75l0-9.07Z" style="fill:#263238"></path><path d="M382.25,54.5a6.34,6.34,0,0,1,5.29,1.76c2.3,2.28,1.15,9.53-1.56,16.65l-5.15.67Z" style="fill:#263238"></path><path d="M379.27,73.61c1.05.61,2.5-1.41,3.76-2.77s5.4-3.25,7.55,1.11-1.68,10.4-4.95,11.48c-5.63,1.87-6.54-1.75-6.54-1.75l-.09,21h0c-6.89,9.14-26.44,8.68-18.45-.87l-.08-6.22s-5.12.86-7.62.51c-4.18-.58-6.85-3.82-8.18-8.31-2.14-7.2-3-13-1.51-27.3,1.65-15.63,19.79-16.08,29.69-10.06S379.27,73.61,379.27,73.61Z" style="fill:#ffbda7"></path><path d="M379.3,75.36c.52,0,2.45-3.32,3.73-4.52,1.76-1.65-.78-16.34-.78-16.34a7.16,7.16,0,0,0-1.35-7.94c-2.49-2.66-6-5.89-17-4.41-7.91,1.06-16.49,3.67-23.51.36A11.86,11.86,0,0,0,344.66,55s2.55,1.58,9.19,2.29,17-.42,18.37-.64c1.92-.29,2.36,1.57,3.48,6.64C376.68,67.79,377.55,75.35,379.3,75.36Z" style="fill:#263238"></path><path d="M382.26,55.64l6.21-3.46a3.45,3.45,0,0,0-4.76-1.5A3.74,3.74,0,0,0,382.26,55.64Z" style="fill:#263238"></path><path d="M361.82,71.92a1.86,1.86,0,1,0,1.83-2A1.88,1.88,0,0,0,361.82,71.92Z" style="fill:#263238"></path><path d="M362.89,65.15l4,2.13a2.38,2.38,0,0,0-1-3.15A2.22,2.22,0,0,0,362.89,65.15Z" style="fill:#263238"></path><path d="M344.33,67l3.59-2.86a2.19,2.19,0,0,0-3.16-.43A2.4,2.4,0,0,0,344.33,67Z" style="fill:#263238"></path><path d="M346.06,71.92a1.86,1.86,0,1,0,1.83-2A1.89,1.89,0,0,0,346.06,71.92Z" style="fill:#263238"></path><path d="M360.47,95.64s9.13-1.79,12.34-3.49a8.22,8.22,0,0,0,3.63-4.37,9.55,9.55,0,0,1-2,5c-2.35,3-13.92,5.64-13.92,5.64Z" style="fill:#f0997a"></path><path d="M362.43,84.58l-5.13,1.93a2.69,2.69,0,0,0,3.49,1.7A2.87,2.87,0,0,0,362.43,84.58Z" style="fill:#f0997a"></path><polygon points="357 70.03 356.39 81.1 350.61 79.13 357 70.03" style="fill:#f0997a"></polygon></g><g id="freepik--character-girl--inject-28"><path d="M146.59,102.59l-1.07.11a26.92,26.92,0,0,1-29.63-23.92h0A26,26,0,0,1,139,50.23l3-.32a26,26,0,0,1,28.56,23h0A26.94,26.94,0,0,1,146.59,102.59Z" style="fill:#263238"></path><path d="M132.75,51.67a181.19,181.19,0,0,1,21.71-7.24,23.71,23.71,0,0,1,9-.81,10.09,10.09,0,0,1,7.41,4.66c1.8,3.24,1,7.47-1.26,10.43a9.95,9.95,0,0,1,.68,18.81,17,17,0,0,1-8.08.55A41.91,41.91,0,0,1,146,73a27,27,0,0,1-11.39-12.37" style="fill:#263238"></path><path d="M159.85,363.42c-2.83-3.22-3.3-6.27-2.75-12.1s6.5-56.57,8-69.27c2.56-21.34,3.45-82.25,2.06-97.14l-57.16,3c-4.41,10.25-7.79,22.92-7.67,43,.09,15.27-1.35,56.66-1.35,56.66s-7.12,5.9-12.41,17.79c-4.67,10.5-10.69,47-10.69,47h0A33.3,33.3,0,0,1,76.12,357a9,9,0,0,0-2.19,5.3,89.52,89.52,0,0,0,1.51,18.91c.61,3.23,2.56,5.34,5.72,6.7a5.19,5.19,0,0,0,2.23.43,1.68,1.68,0,0,0,1.09-.38c.56-.53.1-1.82,0-2.47a23.54,23.54,0,0,1-.2-3.14c0-2.06.12-4.58.31-6.63a67.74,67.74,0,0,1,2.58-13.61l1.17-2.61h0s26.07-49.28,33.42-61.26c5.84-9.41,10.52-46.38,15-66.54l5.42,48.61a94,94,0,0,0-4.11,15.35c-1.27,9,4.15,44.34,5.72,56.91a25,25,0,0,1-.1,7h0c.53,5.45,4.56,7.23,8.69,10.41,2.06,1.58,11.12,7.42,16.65,8.69,4.5,1,6.27-.67,6.94-1.93A94.73,94.73,0,0,1,159.85,363.42Z" style="fill:#ffa8a7"></path><path d="M68.81,364.05a4,4,0,0,0-1.89,2.69c-.39,1.92.11,4.48.75,7s.55,7.89.3,11.8a15.69,15.69,0,0,0,3,10.39c2.06,2.68,5.71,4.68,10.45,4.85s7.21-.47,9-1.41,2.56-5.74-.4-6.85-13.12-3-15.31-12.41A69.89,69.89,0,0,0,68.81,364.05Z" style="fill:#263238"></path><path d="M76.12,357a10.38,10.38,0,0,1,.52,3.41,21.26,21.26,0,0,1,.33,2.9c0,.86.15,1.89.94,2.22a1.74,1.74,0,0,0,1.82-.54,18.89,18.89,0,0,0,1.18-1.64,4.79,4.79,0,0,1,7.43-.21l-.35.8a35.84,35.84,0,0,0-1.74,21.51A6.24,6.24,0,0,0,88.41,389a24.4,24.4,0,0,1,2.66,2.41,4.17,4.17,0,0,1,1.11,3.31,3.69,3.69,0,0,1-1.47,2.22,8.09,8.09,0,0,1-2.44,1.17,17.35,17.35,0,0,1-12.77-.75,11.81,11.81,0,0,1-4.22-3.76c-2.26-4.19-1.89-8.12-1.83-11.68.14-7.86-1-11.95-1.58-15.9C67.23,361.2,74.65,356.2,76.12,357Z" style="fill:#455a64"></path><path d="M141.43,371.07c-.28,1.85-.47,2.67,1.8,4.38s5.78,2.92,8.5,4,6.55,4.15,8.2,5.69,8.06,4.31,13.28,4.14,8.25-1.35,9.51-2.47,2.57-5.07-.77-6.16S141.43,371.07,141.43,371.07Z" style="fill:#263238"></path><path d="M143.8,358a1,1,0,0,0-.73.67c-.48,1.47-.5,3.16-.85,4.67-.53,2.37-1.13,5.77-.79,7.69s2.87,3.84,7.68,5.34c2.89.91,8,3.56,10.36,5.79,2.85,2.73,9,5.1,13.24,5.34,4.94.28,10.13-.91,11.41-4.43.54-1.49.26-3.8-6-7,0,0-4.77-2.56-6.56-3.74a60.46,60.46,0,0,1-8.84-6.84A25.32,25.32,0,0,1,160,362.4a11.52,11.52,0,0,1-1.15-1.64,14.41,14.41,0,0,1-.73-3.29,2.42,2.42,0,0,0-.36-1,2.07,2.07,0,0,0-1-.65,5.94,5.94,0,0,0-8,6.09c-.34.17-.76-.15-.87-.52a8.77,8.77,0,0,1-.09-1.15,2.39,2.39,0,0,0-1.58-1.78A4.65,4.65,0,0,0,143.8,358Z" style="fill:#455a64"></path><path d="M134.06,247c.72-5.44,2.49-12.84,2.49-12.84l1.5,12.64,3.22,32.83a87.22,87.22,0,0,0-2.82,9.34c-1.63,6.34-1.45,17-.45,24s3.14,19.54,3.14,19.54c10.2,5.67,18.19.34,18.19.34s2.37-14.12,4.83-34.48,3.6-40.55,4.18-57.5c0,0,2.63-42.17-3.76-70.89-8.55,5.69-33.52,6.22-43.37-2,0,0-4.21,6.56-13.4,21.21-7.22,11.5-5.68,30.32-6.21,46-.82,24.2-1.4,51.53-1.4,51.53A77.51,77.51,0,0,0,91.36,298c-4.6,7-7.28,22.72-7.28,22.72s4.21,9.59,19.41,10.4c0,0,15.48-26.52,19.35-32.53S133.34,252.43,134.06,247Z" style="fill:#37474f"></path><path d="M136.55,234.16l6.11-21.22s10.66-.86,19.1-6.72c0,0-1.91,7.77-16.61,9.68l-6.86,20.81,0,12.88Z" style="fill:#263238"></path><path d="M171.23,132.29c-5.32-8.72-16.17-17.18-19.69-20.12l-20.91-.4c-4.11.11-10.14.48-10.14.48-4.41,2.21-4.34,7.62-4.62,12.72-.32,5.6-.41,8.06.89,17.35l2.5,11.87.38,1.82c.07.31.13.63.2,1a19.35,19.35,0,0,1-2,13.36c-5,9-10.87,15.77-12.67,23.4a16.62,16.62,0,0,0,7.33-4c3.16-2.87,5.06-4.19,7.62-7.61,0,0,.11,5.2,5.09,12.15a29.33,29.33,0,0,0,4.39,4.87c9.06,8,36.86,12.1,38.41-12.19,0,0-2.67-15.42-3.05-20.59.9-4.43,3.43-12.08,3.53-13.79C175,147,175.11,138.64,171.23,132.29Z" style="fill:#BA68C8"></path><path d="M130.82,116c2,2.42,6.89,7.81,11.46,8.74,5.37,1.09,10.9.63,12.27-2.68s-1.26-7.31-3.68-9.88l-20.24-.39-1.47,0C129.09,112.16,128.56,113.19,130.82,116Z" style="fill:#455a64"></path><path d="M116.16,137.68c.16,1.34.35,2.87.6,4.64l2.5,11.87.38,1.82c.07.31.13.63.2,1a21.21,21.21,0,0,1,.38,4.5c20.46,6.88,37,3.32,45.93,0,1-3.81,2.25-7.76,2.32-8.93A14.82,14.82,0,0,0,173.26,137c-4.76,2.45-11.8,3.92-19.08,4.6A97.67,97.67,0,0,1,116.16,137.68Z" style="opacity:0.30000000000000004"></path><path d="M158.41,151.36s-7,5.89-15.39,3.28a14.16,14.16,0,0,1-9.84-9.79s-.52,9.47,10,12.3C153.36,159.87,158.41,151.36,158.41,151.36Z" style="opacity:0.1"></path><path d="M222.6,187.34a1.58,1.58,0,0,0-.74-.49c-10.46-4.13-22.16-.39-31.27-1.52l.14,3.12c4.33,2.67,9.68,3.17,14.75,2.77s10.05-1.59,15.12-2.05a3.15,3.15,0,0,0,1.58-.4A1.09,1.09,0,0,0,222.6,187.34Z" style="fill:#f28f8f"></path><path d="M149.15,189.56c-2.61-.6-7.6-2.71-9.37-5.06-3.18-4.23-29.73-44.54-31.36-55.62-1.31-8.92,2.88-16.8,12.07-16.63,5.92,4.3,11.75,20.71,11.75,20.71l21,38.55c7.41,3.46,33.34,12,37.91,13.4s13.89.38,20.11,2.36,21.94,8.51,18.77,11.46c-2.43,2.24-5.05,4.46-9.42,4.78-5.37.38-6-1.74-11.39-1.87s-9.88,1.49-15.56-.72c-3.59-1.4-3.75-2.22-8.75-3.43S152.53,190.33,149.15,189.56Z" style="fill:#ffa8a7"></path><path d="M123.12,112.09c-4.64-.8-11-.11-14.9,5.85s-.47,14.23,2,19.76S120.78,156,120.78,156s17.53-1.27,20.84-10.06C141.62,145.91,130.93,123.08,123.12,112.09Z" style="fill:#455a64"></path><path d="M161.46,62.42c2.9,1.89,6.24,9.54,5.18,25.21-.9,13.28-5.35,16.37-7.56,17.22s-6.35.09-10.38-.76l-.36,8s5,4.19,4.47,7.83-8.71,4.65-13.8.84a34.35,34.35,0,0,1-7.46-7.31l.92-20.68s-2.78,2.86-7.13-.32a7.66,7.66,0,0,1-1-11.52c2.72-2.53,7.62-.93,8.5,2.77,0,0,5.78-.1,14.33-5C156.47,73.44,158.9,67.9,161.46,62.42Z" style="fill:#ffa8a7"></path><path d="M149.56,83.2a1.67,1.67,0,1,1-1.68-1.73A1.69,1.69,0,0,1,149.56,83.2Z" style="fill:#263238"></path><path d="M151,94.85l4.74,1.74a2.48,2.48,0,0,1-3.2,1.59A2.65,2.65,0,0,1,151,94.85Z" style="fill:#f28f8f"></path><path d="M164.4,79l-3.28-2.5a2,2,0,0,1,2.83-.45A2.17,2.17,0,0,1,164.4,79Z" style="fill:#263238"></path><path d="M163.44,82.93a1.69,1.69,0,0,1-1.66,1.74,1.74,1.74,0,1,1,1.66-1.74Z" style="fill:#263238"></path><polygon points="155.32 81.61 155.13 91.68 160.5 90.28 155.32 81.61" style="fill:#f28f8f"></polygon><path d="M148.7,104.09c-4.25-.76-12.94-3.67-14.15-7.21a9,9,0,0,0,2.88,4.57c2.53,2.37,11.15,5.3,11.15,5.3Z" style="fill:#f28f8f"></path></g><path id="freepik--Hand--inject-28" d="M207.06,104.44c-.39-7.51,1.74-9.71,4.42-11.51s12.59-4.37,14.64-3.65,12.79,6,12.28,11.21S233,107,227.59,105.76s-14.71-7.36-16.7-6.49S207.06,104.44,207.06,104.44Z" style="fill:#ffa8a7"></path><path id="freepik--hand--inject-28" d="M331.34,111.71c1.93-.87,4.79.39,9.19-.52s7.34-2.72,9.92-2.93,3.67-1,1.05-2.45-7.19-.84-8.1-1.19a16.21,16.21,0,0,1,4.52-2,110.79,110.79,0,0,1,11.34-1.41c.21,0,1.6-2.25-4.89-3.15s-16,.49-19.56,2.38S331.34,111.71,331.34,111.71Z" style="fill:#b16668"></path></g><g id="freepik--Stars--inject-28"><g id="freepik--stars--inject-28"><path d="M76.65,91.87A2,2,0,1,1,74.42,90,2,2,0,0,1,76.65,91.87Z" style="fill:#BA68C8"></path><path d="M81.18,75.34l3.1,2.54,3.84-1.12a.45.45,0,0,1,.55.6l-1.45,3.73,2.25,3.31a.45.45,0,0,1-.4.71l-4-.22-2.45,3.16a.46.46,0,0,1-.8-.16L80.8,84,77,82.66a.46.46,0,0,1-.1-.81l3.37-2.17.13-4A.45.45,0,0,1,81.18,75.34Z" style="fill:#BA68C8"></path><path d="M438.27,93.27a2.44,2.44,0,0,1-.09,4.87,2.44,2.44,0,1,1,.09-4.87Z" style="fill:#BA68C8"></path><path d="M412.05,82.43l4.9-4.8-1.17-6.75a.78.78,0,0,1,1.13-.83L423,73.23l6.06-3.2a.78.78,0,0,1,1.14.82L429,77.61,434,82.39a.78.78,0,0,1-.43,1.33l-6.78,1-3,6.15a.78.78,0,0,1-1.4,0l-3-6.15-6.79-1A.78.78,0,0,1,412.05,82.43Z" style="fill:#BA68C8"></path><path d="M452.79,176.93l1.47,3.26,3.52.65a.41.41,0,0,1,.2.7l-2.65,2.4.47,3.54a.4.4,0,0,1-.6.41l-3.11-1.78-3.22,1.55a.4.4,0,0,1-.57-.45l.73-3.5-2.47-2.58a.41.41,0,0,1,.25-.69l3.55-.39,1.7-3.14A.41.41,0,0,1,452.79,176.93Z" style="fill:#BA68C8"></path><path d="M60.42,152.41,66,156.33l6.42-2.41a.78.78,0,0,1,1,1l-2,6.57,4.28,5.36a.78.78,0,0,1-.59,1.27l-6.86.13-3.78,5.73a.78.78,0,0,1-1.39-.18l-2.24-6.48-6.62-1.82a.78.78,0,0,1-.26-1.38l5.47-4.14-.31-6.85A.78.78,0,0,1,60.42,152.41Z" style="fill:#BA68C8"></path><path d="M443.4,190.15a1.43,1.43,0,0,1-1.18,1.64,1.44,1.44,0,0,1-1.64-1.19,1.43,1.43,0,0,1,1.19-1.63A1.41,1.41,0,0,1,443.4,190.15Z" style="fill:#BA68C8"></path><path d="M81,158.86a1.63,1.63,0,1,1-1.89-1.34A1.63,1.63,0,0,1,81,158.86Z" style="fill:#BA68C8"></path></g></g></svg>